#!OML:ASF H:\ManfredETheater\Project 1\Capture day 1\Session 1\subject.ASF
:FULLY-SPECIFIED
:DEGREES
93
root -3.22935 13.2757 19.495 -36.2864 42.3216 -32.5006
lowerback 36.9879 -1.55317 2.42458
upperback 10.5198 -0.369758 0.736617
thorax -6.64793 0.063924 -0.379616
lowerneck -11.6062 -5.02295 -8.30761
upperneck 23.7051 -6.67225 6.61526
head 9.94099 -3.0683 2.91317
rclavicle -8.11041e-014 1.90833e-014
rhumerus -25.4289 -27.4315 -0.639496
rradius 82.642
rwrist -9.97048
rhand -35.4248 1.65972
rfingers 7.12502
rthumb -8.55469 -28.147
lclavicle -8.11041e-014 1.90833e-014
lhumerus -55.673 27.9565 42.9564
lradius 64.216
lwrist 8.51074
lhand -31.0678 6.30609
lfingers 7.12502
lthumb -4.34862 36.2414
rfemur -35.0634 -17.7011 21.5733
rtibia 69.2791
rfoot -6.57342 -3.57536
rtoes -14.467
lfemur -65.7455 5.93707 -4.53939
ltibia 100.55
lfoot -8.55581 -16.5768
ltoes -7.34991
94
root -3.25391 13.2311 19.9308 -36.9546 43.4522 -33.5661
lowerback 37.154 -1.51322 2.41003
upperback 10.6389 -0.25013 1.1441
thorax -6.56945 0.123491 0.013921
lowerneck -11.262 -5.4591 -8.64026
upperneck 23.5014 -7.33762 7.06543
head 9.89255 -3.36424 3.04562
rclavicle -1.27222e-014 -3.49861e-014
rhumerus -24.6651 -27.7835 -1.24574
rradius 82.1528
rwrist -9.80075
rhand -34.9186 1.42645
rfingers 7.12502
rthumb -8.06617 -28.3996
lclavicle -1.27222e-014 -3.49861e-014
lhumerus -56.0111 28.1393 42.71
lradius 64.2822
lwrist 8.80645
lhand -31.127 6.58041
lfingers 7.12502
lthumb -4.40575 36.5146
rfemur -35.6753 -18.6856 21.8615
rtibia 72.1781
rfoot -7.94639 -2.67577
rtoes -15.6262
lfemur -66.5328 6.43519 -7.2318
ltibia 97.9486
lfoot -8.73625 -15.6855
ltoes -4.8681
95
root -3.27084 13.1934 20.3548 -37.4344 44.5327 -34.7137
lowerback 37.1568 -1.52166 2.55503
upperback 10.7029 -0.148397 1.51441
thorax -6.49794 0.17426 0.290861
lowerneck -10.9943 -5.90002 -8.94893
upperneck 23.3215 -8.01948 7.54934
head 9.87535 -3.66193 3.18224
rclavicle 9.38264e-014 -3.18055e-015
rhumerus -24.0449 -28.1333 -1.93683
rradius 81.7743
rwrist -9.79455
rhand -34.4658 1.18763
rfingers 7.12502
rthumb -7.62914 -28.6548
lclavicle 9.38264e-014 -3.18055e-015
lhumerus -56.2404 28.3115 42.5559
lradius 64.283
lwrist 9.28662
lhand -30.9822 6.62597
lfingers 7.12502
lthumb -4.26591 36.563
rfemur -36.6306 -19.5363 22.1945
rtibia 75.0956
rfoot -8.69575 -1.32108
rtoes -17.5381
lfemur -67.1593 6.76412 -9.85754
ltibia 94.8107
lfoot -8.64784 -15.0324
ltoes -2.49264
96
root -3.27889 13.1598 20.7647 -37.6799 45.6304 -35.7774
lowerback 37.0611 -1.57692 2.78594
upperback 10.7198 -0.0909945 1.79911
thorax -6.44536 0.204929 0.448646
lowerneck -10.7936 -6.3329 -9.21995
upperneck 23.1393 -8.69273 8.03032
head 9.87368 -3.9525 3.31037
rclavicle 2.54444e-014 -5.725e-014
rhumerus -23.5017 -28.4468 -2.71916
rradius 81.4524
rwrist -9.93309
rhand -34.1288 0.940233
rfingers 7.12502
rthumb -7.30385 -28.9137
lclavicle 2.54444e-014 -5.725e-014
lhumerus -56.3652 28.4671 42.4798
lradius 64.2158
lwrist 9.81428
lhand -30.6483 6.46984
lfingers 7.12502
lthumb -3.94354 36.4131
rfemur -37.9636 -20.4065 22.4175
rtibia 78.1337
rfoot -8.70156 0.462435
rtoes -19.6008
lfemur -67.5144 6.82599 -12.4026
ltibia 91.2292
lfoot -8.25533 -14.6428
ltoes -0.580115
97
root -3.27752 13.1276 21.1583 -37.7046 46.7135 -36.6964
lowerback 36.9068 -1.67207 3.10808
upperback 10.7057 -0.0657858 1.99822
thorax -6.4061 0.221942 0.480179
lowerneck -10.6733 -6.75206 -9.46647
upperneck 22.9455 -9.33558 8.47186
head 9.88281 -4.23017 3.42123
rclavicle -3.18055e-014 5.40694e-014
rhumerus -22.9508 -28.7198 -3.57841
rradius 81.1209
rwrist -10.155
rhand -33.9185 0.6896
rfingers 7.12502
rthumb -7.10094 -29.1713
lclavicle -3.18055e-014 5.40694e-014
lhumerus -56.4135 28.6037 42.4911
lradius 64.1052
lwrist 10.2997
lhand -30.3976 6.29554
lfingers 7.12502
lthumb -3.70146 36.2431
rfemur -39.6671 -21.3333 22.4928
rtibia 81.2502
rfoot -7.94895 2.69459
rtoes -21.0883
lfemur -67.5297 6.63468 -14.7331
ltibia 87.3371
lfoot -7.58023 -14.4796
ltoes 0.873372
98
root -3.26642 13.0969 21.5336 -37.485 47.7866 -37.3258
lowerback 36.7436 -1.77996 3.43836
upperback 10.6772 -0.0668023 2.10448
thorax -6.37875 0.227853 0.419071
lowerneck -10.5805 -7.14211 -9.7013
upperneck 22.7009 -9.91756 8.84429
head 9.87335 -4.48647 3.51135
rclavicle -1.43125e-014 1.74931e-014
rhumerus -22.3099 -28.9055 -4.49425
rradius 80.7275
rwrist -10.3986
rhand -33.8361 0.433215
rfingers 7.12502
rthumb -7.02138 -29.4303
lclavicle -1.43125e-014 1.74931e-014
lhumerus -56.4515 28.723 42.5734
lradius 63.9707
lwrist 10.623
lhand -30.238 6.1017
lfingers 7.12502
lthumb -3.54728 36.0519
rfemur -41.6386 -22.3271 22.3057
rtibia 84.3256
rfoot -6.5912 5.08201
rtoes -21.788
lfemur -67.1391 6.23042 -16.8592
ltibia 83.3037
lfoot -6.50461 -14.2674
ltoes 2.5237
99
root -3.24709 13.0696 21.8906 -37.0454 48.8269 -37.5916
lowerback 36.645 -1.86191 3.71105
upperback 10.6494 -0.0610263 2.14279
thorax -6.3728 0.237595 0.314229
lowerneck -10.4951 -7.50926 -9.95764
upperneck 22.3894 -10.439 9.14126
head 9.83601 -4.72562 3.58453
rclavicle -2.38542e-014 4.77083e-015
rhumerus -21.542 -28.9883 -5.41274
rradius 80.23
rwrist -10.5855
rhand -33.8472 0.183475
rfingers 7.12502
rthumb -7.0321 -29.6797
lclavicle -2.38542e-014 4.77083e-015
lhumerus -56.5213 28.8315 42.7312
lradius 63.8314
lwrist 10.6851
lhand -30.1913 5.88189
lfingers 7.12502
lthumb -3.50219 35.8329
rfemur -43.7336 -23.3706 21.8195
rtibia 87.1811
rfoot -4.8223 7.19205
rtoes -21.7076
lfemur -66.438 5.69168 -18.7719
ltibia 79.4495
lfoot -5.28242 -13.9171
ltoes 4.62703
100
root -3.22137 13.0417 22.2328 -36.4953 49.7626 -37.5843
lowerback 36.6561 -1.92039 3.93806
upperback 10.622 -0.0369057 2.17507
thorax -6.40381 0.255111 0.221052
lowerneck -10.4003 -7.84014 -10.3049
upperneck 22.026 -10.8707 9.36716
head 9.77319 -4.93923 3.65891
rclavicle 3.81667e-014 -7.95139e-015
rhumerus -20.5299 -28.9447 -6.32704
rradius 79.5865
rwrist -10.6461
rhand -33.8773 -0.0399183
rfingers 7.12502
rthumb -7.06117 -29.9021
lclavicle 3.81667e-014 -7.95139e-015
lhumerus -56.7343 28.9777 42.933
lradius 63.72
lwrist 10.4657
lhand -30.3104 5.72286
lfingers 7.12502
lthumb -3.61718 35.6719
rfemur -45.8132 -24.3927 21.1345
rtibia 89.6305
rfoot -3.04798 8.57945
rtoes -21.1417
lfemur -65.5777 5.04524 -20.3152
ltibia 76.1196
lfoot -4.00749 -13.3702
ltoes 7.44935
